<?xml version="1.0" encoding="UTF-8"?>
<svg id="circle_k" data-name="circle k" xmlns="http://www.w3.org/2000/svg" width="113.216" height="113.216" viewBox="0 0 113.216 113.216">
  <defs>
    <style>
      .cls-1 {
        fill: #fff;
      }

      .cls-2 {
        fill: none;
        stroke: #0d4d8c;
        stroke-miterlimit: 4;
        stroke-width: 3.804px;
      }

      .cls-3 {
        fill: #eb2627;
      }
    </style>
  </defs>
  <rect class="cls-3" width="113.216" height="113.216"/>
  <path class="cls-1" d="M83.427,38.265c3.979-5.332,2.758-12.319-2.339-16.133-5.114-3.802-12.147-2.988-16.144,2.358l-13.543,18.182v-11.715c0-6.665-5.15-11.528-11.519-11.528s-11.519,4.863-11.519,11.528v51.301c0,6.616,5.148,11.48,11.519,11.48s11.519-4.715,11.519-11.48l.017-15.281,27.366,30.921c-6.598,3.554-14.137,5.566-22.166,5.566-25.882,0-46.88-20.985-46.88-46.88S30.734,9.717,56.618,9.717s46.88,20.985,46.88,46.868c0,9.492-2.828,18.317-7.68,25.699l-24.596-27.676,12.203-16.344"/>
  <path class="cls-2" d="M83.427,38.265c3.979-5.332,2.758-12.319-2.339-16.133-5.114-3.802-12.147-2.988-16.144,2.358l-13.543,18.182v-11.715c0-6.665-5.15-11.528-11.519-11.528s-11.519,4.863-11.519,11.528v51.301c0,6.616,5.148,11.48,11.519,11.48s11.519-4.715,11.519-11.48l.017-15.281,27.366,30.921c-6.598,3.554-14.137,5.566-22.166,5.566-25.882,0-46.88-20.985-46.88-46.88S30.734,9.717,56.618,9.717s46.88,20.985,46.88,46.868c0,9.492-2.828,18.317-7.68,25.699l-24.596-27.676,12.203-16.344h0Z"/>
</svg>