<?xml version="1.0" encoding="UTF-8"?>
<svg id="Layer_1" data-name="Layer 1" xmlns="http://www.w3.org/2000/svg" width="48.002" height="48" viewBox="0 0 48.002 48">
  <defs>
    <style>
      .cls-1 {
        fill: #fff;
      }

      .cls-2 {
        fill: #245b9f;
      }
    </style>
  </defs>
  <path class="cls-2" d="M48.002,24c0,13.254-10.746,24-23.998,24S0,37.254,0,24,10.746,0,24.004,0s23.998,10.744,23.998,24Z"/>
  <path class="cls-1" d="M20.001,39h6v-15h4.453l.547-6h-4.768v-2.399c0-1.169,.779-1.441,1.326-1.441h3.366v-5.141l-4.635-.019c-5.145,0-6.314,3.834-6.314,6.288v2.712h-2.975v6h3v15Z"/>
  <path class="cls-2" d="M48.002,24c0,13.254-10.746,24-23.998,24S0,37.254,0,24,10.746,0,24.004,0s23.998,10.744,23.998,24Z"/>
  <path class="cls-1" d="M20.001,39h6v-15h4.453l.547-6h-4.768v-2.399c0-1.169,.779-1.441,1.326-1.441h3.366v-5.141l-4.635-.019c-5.145,0-6.314,3.834-6.314,6.288v2.712h-2.975v6h3v15Z"/>
  <path class="cls-2" d="M48.002,24c0,13.254-10.746,24-23.998,24S0,37.254,0,24,10.746,0,24.004,0s23.998,10.744,23.998,24Z"/>
  <path class="cls-1" d="M20.001,39h6v-15h4.453l.547-6h-4.768v-2.399c0-1.169,.779-1.441,1.326-1.441h3.366v-5.141l-4.635-.019c-5.145,0-6.314,3.834-6.314,6.288v2.712h-2.975v6h3v15Z"/>
</svg>