<?xml version="1.0" encoding="UTF-8"?>
<svg id="fresh_co" data-name="fresh co" xmlns="http://www.w3.org/2000/svg" width="221.56" height="89.038" viewBox="0 0 221.56 89.038">
  <defs>
    <style>
      .cls-1 {
        fill: #bed731;
      }

      .cls-2 {
        fill: #231f20;
      }
    </style>
  </defs>
  <path class="cls-1" d="M0,0H221.56V89.038H0V0Z"/>
  <path class="cls-2" d="M33.679,20.145c.402,0,.669,.313,.669,.624v6.735c0,.402-.267,.669-.669,.669h-11.329v4.058h8.965c.401,0,.624,.314,.58,.581l-.624,6.244c-.045,.267-.357,.58-.759,.58h-8.161v10.661c0,.311-.313,.624-.67,.624h-7.894c-.357,0-.624-.357-.624-.67V20.77c0-.312,.267-.624,.624-.624h19.893Zm29.797,30.062c.223,.402-.09,.714-.491,.714h-9.546c-.445,0-.847-.313-1.025-.714l-4.638-9.723h-.536v9.813c0,.311-.312,.624-.713,.624h-7.85c-.357,0-.669-.313-.669-.624V20.814c0-.356,.312-.669,.669-.669h11.775c6.869,0,11.419,4.014,11.419,10.08,0,3.523-2.141,7.092-5.487,8.52l7.092,11.462h.001Zm-13.604-17.304c1.517,0,2.543-.937,2.543-2.364s-1.026-2.365-2.543-2.365h-2.632v4.728h2.632Zm37.826,9.991c.357,0,.67,.267,.67,.579v6.825c0,.311-.313,.624-.67,.624h-20.74c-.313,0-.624-.357-.714-.67V20.77c0-.402,.224-.624,.625-.624h20.293c.402,0,.714,.313,.714,.624v6.735c0,.402-.313,.669-.714,.669h-11.641v3.524h9.456c.402,0,.624,.313,.58,.58l-.624,6.244c-.045,.267-.356,.58-.758,.58h-8.653v3.791h12.176Zm6.87-1.338c.135-.445,.446-.58,.803-.357,2.051,1.16,4.504,2.006,6.2,2.141,1.427,0,2.364-.669,2.364-1.695,0-2.632-12.534-2.497-12.534-12.221,0-5.977,4.506-9.946,11.285-9.946,3.166,0,7.181,1.293,9.991,3.212,.356,.223,.491,.58,.356,.802l-2.81,6.289c-.134,.446-.445,.58-.802,.357-2.186-1.249-4.728-2.185-6.29-2.319-1.382,0-2.274,.624-2.274,1.606,0,2.631,12.622,2.454,12.622,12.266,0,5.932-4.594,9.902-11.462,9.902-3.748,0-7.672-1.16-9.902-2.943-.357-.268-.491-.58-.357-.803,0,0,2.81-6.289,2.81-6.289Zm47.147-21.41c.401,0,.669,.313,.669,.669v29.483c0,.311-.268,.624-.669,.624h-8.341c-.342-.007-.617-.283-.624-.624v-9.991h-6.245v9.991c0,.311-.267,.624-.669,.624h-8.341c-.313,0-.624-.313-.624-.624V20.814c0-.356,.312-.669,.624-.669h8.341c.402,0,.669,.313,.669,.669v11.641h6.245v-11.641c0-.356,.267-.669,.624-.669h8.341Zm34.211,28.055c.135,.313-.045,.624-.401,.802-2.588,1.605-6.067,2.587-9.367,2.587-9.189,0-15.344-6.423-15.344-16.057s6.155-16.058,15.344-16.058c3.301,0,6.779,.983,9.367,2.588,.356,.178,.535,.491,.401,.802l-2.943,6.2c-.178,.402-.491,.535-.847,.357-1.65-.937-3.256-1.25-5.175-1.25-4.014,0-6.69,2.944-6.69,7.361s2.676,7.358,6.69,7.358c1.918,0,3.524-.313,5.175-1.249,.356-.178,.669-.045,.847,.357,0,0,2.943,6.2,2.943,6.2Zm16.419-28.721c-8.867,0-16.053,7.188-16.053,16.054s7.186,16.053,16.053,16.053,16.053-7.187,16.053-16.053-7.187-16.054-16.053-16.054Zm9.581,14.449l-9.163,11.349c-.098,.127-.248,.202-.408,.205-.16-.003-.31-.078-.407-.205l-9.163-11.349c-.154-.2-.194-.465-.106-.702,.089-.238,.29-.391,.512-.391h5.131v-5.855c0-.428,.351-.779,.779-.779h6.506c.429,0,.779,.351,.779,.779v5.856h5.131c.223,0,.424,.154,.512,.391,.089,.236,.049,.502-.105,.702h0Zm-110.043,31.801v1.46h-5.565v-9.503h1.767v8.043h3.798Zm3.661-5.389c.499,0,.954,.082,1.364,.243,.409,.163,.76,.393,1.051,.691,.292,.298,.516,.662,.674,1.09,.157,.43,.237,.91,.237,1.439,0,.535-.08,1.017-.237,1.446-.158,.43-.383,.795-.673,1.097-.292,.302-.642,.534-1.052,.696-.435,.167-.898,.25-1.364,.244-.504,0-.963-.083-1.374-.244-.398-.153-.758-.391-1.054-.697-.299-.315-.53-.689-.677-1.097-.166-.464-.247-.953-.24-1.445,0-.529,.08-1.009,.24-1.439,.147-.407,.377-.778,.677-1.09,.291-.298,.642-.528,1.054-.691,.412-.162,.87-.243,1.374-.243Zm0,5.697c.56,0,.976-.187,1.244-.565,.269-.377,.404-.928,.404-1.655s-.135-1.282-.404-1.662c-.269-.382-.683-.573-1.244-.573-.569,0-.992,.192-1.265,.576-.273,.383-.411,.936-.411,1.659s.138,1.273,.411,1.652c.273,.38,.695,.569,1.265,.569h0Zm14.096-5.593l-2.143,6.742h-1.3c-.149,0-.253-.096-.309-.29l-1.209-3.896c-.039-.13-.075-.26-.109-.391-.033-.129-.061-.259-.083-.39-.054,.268-.12,.533-.197,.795l-1.229,3.882c-.053,.194-.169,.29-.348,.29h-1.249l-2.136-6.742h1.294c.119,0,.219,.028,.302,.085,.083,.058,.138,.129,.165,.217l.966,3.601c.048,.197,.091,.39,.128,.579,.037,.188,.068,.377,.095,.564,.048-.187,.099-.376,.154-.564s.113-.381,.174-.579l1.118-3.613c.026-.087,.08-.164,.153-.217,.081-.059,.179-.089,.28-.086h.716c.104-.003,.206,.027,.292,.086,.082,.057,.135,.129,.162,.217l1.084,3.613c.057,.197,.111,.391,.162,.582l.148,.569c.056-.373,.138-.757,.242-1.151l.993-3.601c.031-.088,.088-.164,.165-.217,.082-.058,.181-.088,.282-.085,0,0,1.236,0,1.236,0Zm2.07,3.575c.027,.346,.088,.645,.184,.897,.096,.253,.223,.461,.381,.624,.157,.165,.345,.288,.562,.369s.457,.121,.72,.121,.49-.031,.68-.092c.19-.062,.356-.128,.499-.203s.267-.143,.375-.204c.094-.058,.202-.09,.313-.093,.135,0,.236,.052,.301,.152l.467,.591c-.174,.205-.378,.384-.605,.529-.219,.14-.454,.255-.7,.342-.243,.086-.491,.145-.742,.181-.253,.034-.497,.052-.733,.052-.469,0-.905-.077-1.308-.233-.396-.151-.755-.386-1.052-.69-.31-.324-.55-.709-.703-1.131-.171-.449-.257-.969-.257-1.56-.003-.443,.073-.882,.225-1.298,.148-.406,.362-.758,.64-1.058,.279-.3,.618-.538,1.019-.713s.853-.263,1.357-.263c.424,0,.817,.068,1.176,.204,.359,.136,.668,.334,.927,.595s.462,.58,.608,.959c.147,.379,.221,.812,.221,1.298,0,.245-.027,.41-.08,.496-.052,.085-.152,.128-.302,.128h-4.172Zm3.096-.979c0-.21-.031-.408-.089-.594-.055-.179-.145-.346-.266-.49-.123-.143-.277-.257-.45-.331-.2-.085-.416-.126-.634-.122-.469,0-.839,.135-1.108,.401-.269,.267-.441,.646-.516,1.137h3.063Zm4.219-1.426c.209-.404,.46-.721,.749-.949,.291-.231,.653-.353,1.025-.346,.311,0,.561,.068,.75,.204l-.106,1.215c-.013,.065-.047,.123-.095,.168-.049,.035-.108,.053-.168,.05-.065,0-.163-.01-.292-.033-.125-.022-.251-.033-.378-.033-.18,0-.34,.026-.479,.08-.141,.052-.267,.127-.378,.227-.112,.098-.211,.217-.296,.357-.086,.141-.166,.3-.24,.48v4.153h-1.622v-6.742h.952c.167,0,.283,.03,.348,.089,.066,.059,.11,.166,.131,.318,0,0,.099,.763,.099,.763Zm5.288-3.135c0,.136-.028,.271-.085,.394-.113,.244-.312,.437-.559,.543-.257,.111-.548,.111-.804,0-.244-.106-.439-.299-.546-.543-.11-.256-.11-.546,0-.802,.055-.126,.128-.236,.221-.328,.091-.092,.2-.166,.325-.219,.257-.111,.548-.111,.805,0,.249,.105,.449,.301,.559,.549,.057,.128,.085,.267,.084,.407Zm-.223,1.965v6.742h-1.631v-6.742s1.631,0,1.631,0Zm3.187,.828c.135-.135,.279-.262,.431-.379,.303-.232,.651-.397,1.022-.486,.193-.047,.404-.069,.632-.069,.368,0,.694,.062,.978,.187,.285,.124,.523,.3,.713,.526,.19,.226,.335,.496,.435,.808,.097,.314,.147,.658,.147,1.035v4.291h-1.623v-4.291c0-.411-.094-.73-.283-.956s-.476-.339-.86-.339c-.281,0-.545,.063-.789,.19-.258,.136-.493,.311-.697,.52v4.876h-1.623v-6.743h.992c.211,0,.349,.098,.414,.295l.112,.533Zm11.821-.598v.605c0,.193-.116,.311-.348,.355l-.605,.111c.093,.233,.138,.487,.138,.763,0,.333-.066,.634-.2,.904-.135,.269-.319,.498-.555,.686-.25,.196-.535,.344-.839,.437-.321,.104-.669,.155-1.042,.155-.131,0-.259-.007-.381-.021-.121-.013-.242-.03-.361-.052-.21,.126-.315,.269-.315,.427,0,.135,.062,.236,.186,.299s.29,.109,.497,.135c.206,.026,.44,.042,.703,.05,.262,.006,.532,.021,.808,.041,.276,.023,.546,.062,.809,.116,.263,.055,.497,.141,.704,.259,.205,.119,.371,.28,.495,.484,.125,.204,.187,.466,.187,.785,0,.299-.072,.588-.219,.868-.147,.281-.359,.53-.638,.75s-.62,.395-1.025,.529c-.448,.14-.915,.207-1.384,.2-.447,.007-.892-.043-1.326-.148-.333-.079-.65-.212-.94-.393-.229-.143-.421-.338-.559-.569-.119-.203-.182-.434-.183-.669,0-.316,.095-.58,.286-.792,.191-.213,.452-.383,.785-.509-.171-.085-.318-.212-.427-.369-.106-.153-.158-.354-.158-.605,0-.1,.019-.204,.057-.312,.036-.108,.091-.214,.164-.319,.072-.106,.164-.205,.272-.299,.11-.093,.239-.178,.388-.253-.328-.171-.605-.425-.804-.736-.2-.323-.302-.698-.293-1.078,0-.333,.066-.635,.2-.904,.135-.269,.321-.499,.559-.69,.238-.192,.521-.336,.848-.437,.326-.1,.683-.151,1.067-.151,.29,0,.561,.029,.816,.088,.254,.06,.487,.146,.696,.26h1.938Zm-1.615,6.815c.004-.118-.039-.234-.119-.321-.079-.083-.186-.149-.322-.195s-.294-.08-.476-.102c-.192-.023-.385-.039-.579-.049l-.631-.03c-.212-.008-.424-.025-.635-.052-.166,.09-.315,.211-.437,.355-.11,.132-.17,.3-.168,.472,0,.116,.03,.231,.089,.331,.069,.113,.166,.205,.283,.267,.129,.075,.296,.133,.503,.174,.205,.041,.458,.062,.756,.062,.301,0,.562-.023,.782-.068,.218-.046,.4-.11,.541-.19,.128-.067,.236-.167,.313-.29,.066-.11,.1-.236,.099-.364h0Zm-1.835-3.838c.202,0,.377-.027,.526-.082,.276-.089,.496-.301,.594-.575,.052-.136,.077-.286,.077-.447,0-.332-.1-.596-.299-.792-.2-.195-.498-.292-.898-.292s-.698,.097-.897,.292-.299,.46-.299,.792c0,.158,.026,.304,.076,.44s.125,.254,.224,.352,.224,.176,.375,.23,.325,.083,.522,.083h0Zm8.169,3.535v-5.519l-.585-.093c-.111-.019-.216-.065-.305-.135-.077-.062-.115-.153-.115-.272v-.664h1.004v-.499c0-.386,.059-.732,.175-1.038s.283-.567,.5-.783c.225-.22,.495-.388,.791-.493,.311-.114,.662-.171,1.052-.171,.311,0,.6,.041,.868,.125l-.033,.815c-.001,.054-.019,.105-.052,.148-.033,.038-.075,.068-.122,.085-.056,.021-.114,.035-.174,.04-.066,.006-.137,.009-.211,.009-.193,0-.364,.021-.516,.062-.145,.038-.277,.113-.384,.217-.106,.104-.186,.238-.24,.408-.059,.203-.087,.415-.082,.626v.447h1.754v1.156h-1.701v5.527h-1.623Zm7.058-6.848c.499,0,.954,.082,1.364,.243,.409,.163,.76,.393,1.052,.691,.29,.298,.516,.662,.673,1.09,.157,.43,.237,.91,.237,1.439,0,.535-.08,1.017-.237,1.446-.157,.43-.383,.795-.673,1.097-.292,.302-.642,.534-1.052,.696-.435,.167-.898,.25-1.364,.244-.504,0-.962-.083-1.374-.244s-.763-.393-1.054-.697c-.299-.315-.53-.689-.677-1.097-.166-.464-.247-.953-.24-1.445,0-.529,.08-1.009,.24-1.439,.147-.407,.377-.778,.677-1.09,.291-.298,.642-.528,1.054-.691,.412-.162,.87-.243,1.374-.243Zm0,5.697c.56,0,.976-.187,1.246-.565,.269-.377,.404-.928,.404-1.655s-.135-1.282-.404-1.662c-.269-.382-.685-.573-1.246-.573-.569,0-.991,.192-1.265,.576-.273,.383-.411,.936-.411,1.659s.138,1.273,.411,1.652c.274,.38,.696,.569,1.265,.569h0Zm7.564-5.698c.499,0,.952,.082,1.364,.243,.409,.163,.76,.393,1.051,.691,.291,.298,.516,.662,.673,1.09,.158,.43,.238,.91,.238,1.439,0,.535-.08,1.017-.238,1.446-.281,.824-.912,1.481-1.725,1.794-.435,.167-.897,.249-1.362,.243-.504,0-.963-.083-1.374-.244-.398-.153-.758-.39-1.055-.697-.299-.315-.529-.689-.676-1.097-.166-.464-.247-.953-.24-1.445,0-.529,.08-1.009,.24-1.439,.146-.407,.377-.778,.676-1.09,.292-.298,.643-.528,1.055-.691,.412-.162,.87-.243,1.374-.243Zm0,5.697c.559,0,.975-.187,1.244-.565,.269-.377,.404-.928,.404-1.655s-.135-1.282-.404-1.662c-.269-.382-.684-.573-1.244-.573-.569,0-.992,.192-1.266,.576-.273,.383-.41,.936-.41,1.659s.137,1.273,.41,1.652c.274,.38,.696,.569,1.266,.569h0Zm10.435-8.616v9.765h-.993c-.214,0-.35-.098-.407-.295l-.139-.65c-.271,.311-.583,.562-.936,.756-.352,.192-.763,.289-1.232,.289-.369,0-.705-.078-1.013-.231-.312-.158-.583-.386-.791-.667-.237-.325-.411-.692-.512-1.081-.127-.48-.188-.976-.181-1.472,0-.499,.068-.963,.204-1.394,.136-.429,.331-.801,.584-1.116,.247-.31,.559-.563,.914-.74,.372-.181,.782-.272,1.196-.266,.377,0,.699,.059,.966,.178,.267,.118,.507,.277,.716,.479v-3.555h1.623Zm-1.623,4.745c-.159-.204-.365-.366-.6-.473-.222-.093-.46-.14-.701-.139-.245,0-.466,.047-.663,.139s-.367,.231-.507,.417c-.14,.186-.247,.422-.321,.71s-.112,.625-.112,1.015c0,.393,.031,.729,.094,1.002,.064,.273,.155,.497,.273,.67,.118,.174,.263,.299,.435,.375s.36,.115,.57,.115c.338,0,.624-.069,.861-.21,.236-.14,.46-.339,.67-.597v-3.023Zm7.984-.801c.275-.311,.589-.563,.939-.756,.351-.193,.763-.29,1.235-.29,.369,0,.704,.078,1.009,.23,.304,.154,.567,.377,.788,.668s.392,.65,.514,1.077c.12,.428,.18,.917,.18,1.47,0,.503-.068,.969-.204,1.399-.123,.406-.32,.785-.581,1.118-.246,.311-.559,.563-.914,.738-.373,.181-.784,.273-1.199,.267-.377,0-.699-.059-.966-.175-.267-.115-.509-.279-.716-.482v2.759h-1.622v-8.943h.992c.21,0,.348,.098,.414,.295l.131,.625h0Zm.085,4.074c.184,.223,.384,.381,.6,.473,.217,.091,.453,.138,.707,.138,.229,.004,.455-.043,.664-.138,.197-.092,.365-.232,.503-.421,.138-.187,.244-.424,.319-.712s.111-.625,.111-1.015c0-.394-.031-.729-.094-1.003-.049-.237-.141-.464-.273-.667-.107-.161-.256-.29-.43-.375-.181-.081-.377-.121-.576-.118-.338,0-.624,.071-.861,.214-.256,.16-.483,.363-.67,.6v3.023h0Zm7.386-3.825c.21-.404,.46-.721,.75-.949,.291-.231,.653-.353,1.025-.346,.311,0,.561,.068,.75,.204l-.106,1.215c-.013,.065-.047,.123-.095,.168-.049,.035-.108,.053-.168,.05-.065,0-.163-.01-.292-.033-.125-.022-.251-.033-.378-.033-.18,0-.34,.026-.48,.08-.14,.052-.266,.127-.378,.227-.111,.098-.21,.217-.295,.357-.086,.141-.166,.3-.24,.48v4.153h-1.622v-6.742h.952c.166,0,.283,.03,.348,.089,.066,.059,.11,.166,.131,.318l.098,.763h0Zm5.291-3.135c0,.136-.029,.271-.086,.394-.113,.244-.312,.437-.559,.543-.257,.111-.548,.111-.804,0-.244-.106-.439-.299-.546-.543-.11-.256-.11-.546,0-.802,.055-.126,.129-.236,.221-.328,.092-.092,.201-.166,.325-.219,.257-.111,.548-.111,.805,0,.249,.105,.449,.301,.559,.549,.057,.128,.086,.267,.085,.407h0Zm-.224,1.965v6.742h-1.63v-6.742s1.63,0,1.63,0Zm6.5,1.426c-.041,.054-.089,.103-.142,.145-.059,.039-.13,.058-.201,.053-.083,0-.164-.026-.243-.076s-.173-.108-.282-.171c-.289-.168-.618-.254-.952-.246-.286,0-.536,.052-.75,.155-.215,.101-.393,.25-.536,.443-.143,.193-.248,.424-.319,.699-.073,.304-.109,.617-.105,.93,0,.36,.038,.679,.114,.96,.078,.28,.188,.516,.333,.706s.319,.335,.525,.435c.206,.097,.438,.147,.697,.147s.468-.031,.627-.095c.159-.062,.295-.134,.404-.21,.097-.067,.193-.138,.287-.21,.077-.062,.173-.096,.272-.095,.131,0,.23,.051,.296,.151l.466,.591c-.17,.202-.367,.38-.585,.529-.404,.276-.866,.455-1.35,.523-.238,.034-.476,.052-.713,.052-.416,0-.808-.077-1.176-.233-.367-.155-.696-.387-.966-.68-.288-.318-.51-.69-.653-1.094-.167-.474-.249-.973-.24-1.475,0-.494,.07-.952,.213-1.377,.143-.422,.352-.788,.627-1.097,.276-.309,.618-.55,1.025-.725,.408-.176,.877-.264,1.407-.264,.504,0,.945,.082,1.324,.243,.379,.163,.72,.393,1.022,.697l-.427,.591h0Zm2.647,2.149c.027,.346,.088,.645,.184,.897,.096,.253,.224,.461,.381,.624,.157,.165,.345,.288,.562,.369s.457,.121,.72,.121,.49-.031,.68-.092c.191-.062,.357-.128,.499-.203,.143-.075,.268-.143,.375-.204,.094-.058,.202-.09,.313-.093,.135,0,.236,.052,.302,.152l.466,.591c-.174,.205-.378,.384-.605,.529-.219,.14-.454,.255-.699,.342-.244,.086-.492,.145-.743,.181-.253,.034-.497,.052-.733,.052-.468,0-.905-.077-1.308-.233-.396-.151-.755-.386-1.052-.69-.31-.324-.55-.709-.703-1.131-.171-.449-.256-.969-.256-1.56-.003-.443,.073-.882,.224-1.298,.148-.406,.362-.758,.641-1.058,.277-.3,.617-.538,1.019-.713,.429-.181,.891-.27,1.356-.263,.424,0,.818,.068,1.176,.204,.359,.136,.669,.334,.927,.595,.259,.261,.462,.58,.608,.959s.221,.812,.221,1.298c0,.245-.026,.41-.079,.496-.052,.085-.153,.128-.302,.128h-4.173Zm3.096-.979c0-.21-.03-.408-.089-.594-.055-.179-.145-.346-.266-.49-.123-.143-.277-.257-.45-.331-.2-.085-.416-.126-.634-.122-.469,0-.839,.135-1.108,.401-.269,.267-.441,.646-.516,1.137h3.063Zm6.801-1.282c-.034,.059-.081,.11-.138,.148-.056,.031-.12,.045-.184,.042-.088-.002-.175-.024-.253-.065-.09-.043-.194-.093-.313-.148-.131-.059-.266-.109-.404-.148-.174-.047-.355-.069-.535-.065-.321,0-.57,.068-.753,.204-.174,.121-.276,.32-.272,.532,0,.145,.047,.266,.141,.364,.093,.098,.218,.185,.375,.259,.155,.076,.331,.142,.528,.201,.197,.059,.399,.124,.602,.194,.204,.07,.404,.151,.6,.241,.199,.089,.375,.203,.53,.342,.155,.138,.28,.303,.375,.496s.142,.424,.142,.697c.003,.308-.057,.613-.175,.897-.115,.273-.292,.515-.516,.709-.228,.2-.509,.355-.845,.466-.375,.118-.766,.175-1.16,.169-.232,0-.459-.021-.68-.062s-.434-.1-.638-.175c-.196-.071-.384-.159-.564-.263-.164-.093-.317-.203-.458-.328l.375-.618c.049-.075,.106-.13,.171-.171s.149-.059,.25-.059c.102,0,.201,.03,.287,.086,.089,.057,.194,.118,.312,.184,.118,.065,.257,.126,.417,.184,.16,.056,.362,.085,.608,.085,.193,0,.358-.024,.497-.069s.252-.106,.342-.18,.155-.162,.197-.26c.041-.097,.062-.2,.062-.305,.006-.143-.045-.282-.141-.388-.108-.11-.235-.199-.375-.263-.172-.08-.35-.147-.532-.2-.2-.059-.404-.124-.611-.195-.208-.07-.412-.152-.611-.245-.195-.091-.375-.212-.533-.358-.155-.145-.28-.322-.375-.533-.1-.241-.148-.501-.141-.762,0-.276,.055-.538,.164-.789,.11-.248,.271-.467,.483-.653s.477-.335,.795-.447c.355-.118,.727-.174,1.101-.168,.465,0,.887,.078,1.268,.23,.381,.154,.699,.355,.952,.606l-.368,.584h0Z"/>
</svg>