<?xml version="1.0" encoding="UTF-8"?>
<svg id="real_canadian_superstore" data-name="real canadian superstore" xmlns="http://www.w3.org/2000/svg" width="262.717" height="45.742" viewBox="0 0 262.717 45.742">
  <defs>
    <style>
      .cls-1 {
        fill: #d92e27;
      }

      .cls-2 {
        fill: #1a459d;
      }
    </style>
  </defs>
  <g id="layer1">
    <path id="path4045" class="cls-2" d="M54.142,.3h7.425c3.825,0,7.05,1.65,7.05,5.925,0,2.55-.975,3.675-3.3,4.425v.15c.3,.225,.675,.525,1.05,1.05l3.675,5.55h-7.125l-2.7-5.475h-.075v5.4h-6.075l.075-17.025m6.075,7.5h.45c1.05,0,2.025-.15,2.025-1.425s-.9-1.5-1.95-1.5h-.45l-.075,2.925Z"/>
    <polygon id="polygon4047" class="cls-2" points="81.742 11.025 77.017 11.025 77.017 12.675 82.417 12.675 82.417 17.325 70.792 17.325 70.792 .3 82.192 .3 82.192 4.95 77.017 4.95 77.017 6.6 81.742 6.6 81.742 11.025"/>
    <path id="path4049" class="cls-2" d="M89.617,17.325h-6.525L89.017,.3h6.825l6.075,17.025h-6.525l-.6-2.1h-4.65l-.525,2.1m4.05-6.15l-.75-3c-.15-.75-.3-1.5-.375-2.175h-.225l-1.125,5.175h2.475Z"/>
    <polygon id="polygon4051" class="cls-2" points="102.817 .3 108.967 .3 108.967 11.85 114.217 11.85 114.217 17.325 102.817 17.325 102.817 .3"/>
    <path id="path4053" class="cls-2" d="M135.517,7.2c-.975-.9-2.25-1.725-3.6-1.725-1.875,0-3.375,1.5-3.375,3.3,0,1.875,1.575,3.3,3.45,3.3,1.425,0,2.55-.6,3.525-1.575l-.15,6.375c-.975,.45-3.3,.675-4.425,.675-4.875,0-8.625-3.75-8.625-8.625,0-4.95,3.9-8.925,8.85-8.925,1.425,0,2.85,.225,4.125,.675l.225,6.525"/>
    <path id="path4055" class="cls-2" d="M142.567,17.325h-6.525L141.967,.3h6.825l6.075,17.025h-6.525l-.6-2.1h-4.65l-.525,2.1m4.05-6.15l-.75-3c-.15-.75-.3-1.5-.375-2.175h-.225l-1.125,5.175h2.475Z"/>
    <path id="path4057" class="cls-2" d="M155.692,.3h5.925l5.55,9.45h.15c-.225-1.425-.525-2.85-.525-4.35V.3h5.925V17.325h-5.925l-5.4-8.925h-.15c.225,1.2,.375,2.25,.375,3.375v5.55h-5.925V.3"/>
    <path id="path4059" class="cls-2" d="M180.142,17.325h-6.525L179.542,.3h6.825l6.075,17.025h-6.525l-.6-2.1h-4.65l-.525,2.1m4.05-6.15l-.75-3c-.15-.75-.3-1.5-.375-2.175h-.225l-1.125,5.175h2.475Z"/>
    <path id="path4061" class="cls-2" d="M193.342,.3h6.3c5.7,0,10.05,2.475,10.05,8.775,0,5.025-3.6,8.25-8.55,8.25h-7.8V.3m6.225,11.925h.375c2.025,0,3.6-.975,3.6-3.15,0-2.4-1.35-3.375-3.6-3.375h-.375v6.525Z"/>
    <rect id="rect4063" class="cls-2" x="211.492" y=".3" width="6.15" height="17.025"/>
    <path id="path4065" class="cls-2" d="M225.217,17.325h-6.525L224.617,.3h6.825l6.075,17.025h-6.6l-.6-2.1h-4.65l-.45,2.1m4.05-6.15l-.75-3c-.15-.75-.3-1.5-.375-2.175h-.225l-1.125,5.175h2.475Z"/>
    <path id="path4067" class="cls-2" d="M238.342,.3h5.925l5.55,9.45h.15c-.225-1.425-.525-2.85-.525-4.35V.3h5.925V17.325h-5.925l-5.4-8.925h-.15c.225,1.2,.375,2.25,.375,3.375v5.55h-5.925V.3"/>
    <path id="path4069" class="cls-1" d="M55.792,35.55l.375,.3c1.425,1.125,3.15,2.025,5.025,2.025,.825,0,2.025-.3,2.025-1.35,0-.975-1.05-1.05-1.8-1.2l-1.575-.3c-3.15-.525-5.775-2.4-5.775-5.85,0-5.25,4.8-8.175,9.6-8.175,2.55,0,4.875,.6,7.05,1.95l-2.175,5.625c-1.35-.9-2.925-1.65-4.65-1.65-.675,0-1.725,.3-1.725,1.2,0,.825,.975,.975,1.65,1.05l1.8,.45c3.375,.75,5.85,2.55,5.85,6.3,0,5.25-4.8,7.875-9.6,7.875-2.775,0-6-.75-8.475-2.025l2.4-6.225"/>
    <path id="path4071" class="cls-1" d="M93.592,21.3v13.125c0,6.45-4.05,9.375-10.275,9.375s-10.2-2.925-10.2-9.375v-13.125h8.025v12.3c0,1.725,.075,3.225,2.175,3.225,2.175,0,2.175-1.5,2.175-3.225v-12.3h8.1"/>
    <path id="path4073" class="cls-1" d="M95.617,21.3h10.2c5.175,0,9,2.625,9,8.1,0,4.5-2.85,7.35-7.275,7.35h-4.125v6.675h-7.725l-.075-22.125m7.725,9.9h.825c1.425,0,2.925-.225,2.925-2.025,0-1.725-1.65-1.8-3-1.8h-.75v3.825Z"/>
    <polygon id="polygon4075" class="cls-1" points="130.942 35.25 124.717 35.25 124.717 37.425 131.767 37.425 131.767 43.425 116.617 43.425 116.617 21.3 131.542 21.3 131.542 27.375 124.717 27.375 124.717 29.475 130.942 29.475 130.942 35.25"/>
    <path id="path4077" class="cls-1" d="M133.792,21.3h9.75c4.95,0,9.225,2.1,9.225,7.65,0,3.375-1.275,4.725-4.275,5.775v.15c.375,.3,.9,.675,1.35,1.35l4.8,7.2h-9.3l-3.525-7.125h-.15v7.125h-7.875V21.3m7.875,9.825h.525c1.35,0,2.625-.225,2.625-1.875,0-1.725-1.2-1.875-2.55-1.875h-.6v3.75Z"/>
    <path id="path4079" class="cls-1" d="M157.642,35.55l.375,.3c1.425,1.125,3.15,2.025,5.025,2.025,.825,0,2.025-.3,2.025-1.35,0-.975-1.05-1.05-1.8-1.2l-1.65-.3c-3.15-.525-5.775-2.4-5.775-5.85,0-5.25,4.8-8.175,9.6-8.175,2.55,0,4.875,.6,7.05,1.95l-2.175,5.625c-1.35-.9-2.925-1.65-4.65-1.65-.675,0-1.725,.3-1.725,1.2,0,.825,.975,.975,1.65,1.05l1.8,.45c3.375,.75,5.85,2.55,5.85,6.3,0,5.25-4.8,7.875-9.6,7.875-2.775,0-6-.75-8.475-2.025l2.475-6.225"/>
    <polygon id="polygon4081" class="cls-1" points="191.092 28.5 186.667 28.35 186.667 43.425 178.642 43.425 178.642 28.35 174.217 28.5 174.217 21.3 191.092 21.3 191.092 28.5"/>
    <path id="path4083" class="cls-1" d="M216.967,32.475c0,7.125-5.475,11.325-12.225,11.325s-12.225-4.275-12.225-11.325c0-6.975,5.55-11.475,12.225-11.475s12.225,4.5,12.225,11.475m-16.425,.075c0,2.55,1.725,4.275,4.125,4.275s4.125-1.725,4.125-4.275c0-2.325-1.575-4.275-4.125-4.275-2.475,0-4.125,1.95-4.125,4.275"/>
    <path id="path4085" class="cls-1" d="M218.692,21.3h9.75c5.025,0,9.225,2.1,9.225,7.65,0,3.375-1.275,4.725-4.275,5.775v.15c.375,.3,.9,.675,1.35,1.35l4.8,7.2h-9.3l-3.525-7.125h-.15v7.125h-7.875V21.3m7.875,9.825h.525c1.35,0,2.625-.225,2.625-1.875,0-1.725-1.2-1.875-2.55-1.875h-.6v3.75Z"/>
    <polygon id="polygon4087" class="cls-1" points="254.542 35.25 248.392 35.25 248.392 37.425 255.367 37.425 255.367 43.425 240.292 43.425 240.292 21.3 255.142 21.3 255.142 27.375 248.392 27.375 248.392 29.475 254.542 29.475 254.542 35.25"/>
    <path id="path4089" class="cls-1" d="M55.792,35.55l.375,.3c1.425,1.125,3.15,2.025,5.025,2.025,.825,0,2.025-.3,2.025-1.35,0-.975-1.05-1.05-1.8-1.2l-1.575-.3c-3.15-.525-5.775-2.4-5.775-5.85,0-5.25,4.8-8.175,9.6-8.175,2.55,0,4.875,.6,7.05,1.95l-2.175,5.625c-1.35-.9-2.925-1.65-4.65-1.65-.675,0-1.725,.3-1.725,1.2,0,.825,.975,.975,1.65,1.05l1.8,.45c3.375,.75,5.85,2.55,5.85,6.3,0,5.25-4.8,7.875-9.6,7.875-2.775,0-6-.75-8.475-2.025l2.4-6.225"/>
    <path id="path4091" class="cls-1" d="M93.592,21.3v13.125c0,6.45-4.05,9.375-10.275,9.375s-10.2-2.925-10.2-9.375v-13.125h8.025v12.3c0,1.725,.075,3.225,2.175,3.225,2.175,0,2.175-1.5,2.175-3.225v-12.3h8.1"/>
    <path id="path4093" class="cls-1" d="M95.617,21.3h10.2c5.175,0,9,2.625,9,8.1,0,4.5-2.85,7.35-7.275,7.35h-4.125v6.675h-7.725l-.075-22.125m7.725,9.9h.825c1.425,0,2.925-.225,2.925-2.025,0-1.725-1.65-1.8-3-1.8h-.75v3.825Z"/>
    <polygon id="polygon4095" class="cls-1" points="130.867 35.25 124.642 35.25 124.642 37.425 131.617 37.425 131.617 43.425 116.542 43.425 116.542 21.3 131.392 21.3 131.392 27.375 124.642 27.375 124.642 29.475 130.867 29.475 130.867 35.25"/>
    <path id="path4097" class="cls-1" d="M133.717,21.3h9.675c5.025,0,9.225,2.1,9.225,7.65,0,3.375-1.275,4.725-4.275,5.775v.15c.375,.3,.9,.675,1.35,1.35l4.8,7.2h-9.3l-3.525-7.125h-.15v7.125h-7.875l.075-22.125m7.875,9.825h.525c1.35,0,2.625-.225,2.625-1.875,0-1.725-1.2-1.875-2.55-1.875h-.6v3.75Z"/>
    <path id="path4099" class="cls-1" d="M157.567,35.55l.375,.3c1.425,1.125,3.15,2.025,5.025,2.025,.825,0,2.025-.3,2.025-1.35,0-.975-1.05-1.05-1.8-1.2l-1.575-.3c-3.15-.525-5.775-2.4-5.775-5.85,0-5.25,4.8-8.175,9.6-8.175,2.55,0,4.875,.6,7.05,1.95l-2.175,5.625c-1.35-.9-2.925-1.65-4.65-1.65-.675,0-1.725,.3-1.725,1.2,0,.825,.975,.975,1.65,1.05l1.8,.45c3.375,.75,5.85,2.55,5.85,6.3,0,5.25-4.8,7.875-9.6,7.875-2.775,0-6-.75-8.475-2.025l2.4-6.225"/>
    <path id="path4101" class="cls-1" d="M216.892,32.475c0,7.125-5.475,11.325-12.225,11.325s-12.225-4.275-12.225-11.325c0-6.975,5.55-11.475,12.225-11.475s12.225,4.5,12.225,11.475m-16.425,.075c0,2.55,1.725,4.275,4.125,4.275s4.125-1.725,4.125-4.275c0-2.325-1.575-4.275-4.125-4.275s-4.125,1.95-4.125,4.275"/>
    <path id="path4103" class="cls-1" d="M218.617,21.3h9.675c4.95,0,9.225,2.1,9.225,7.65,0,3.375-1.275,4.725-4.275,5.775v.15c.375,.3,.9,.675,1.35,1.35l4.8,7.2h-9.225l-3.525-7.125h-.15v7.125h-7.875V21.3m7.875,9.825h.525c1.35,0,2.625-.225,2.625-1.875,0-1.725-1.2-1.875-2.55-1.875h-.6v3.75Z"/>
    <polygon id="polygon4105" class="cls-1" points="254.542 35.25 248.392 35.25 248.392 37.425 255.367 37.425 255.367 43.425 240.292 43.425 240.292 21.3 255.142 21.3 255.142 27.375 248.392 27.375 248.392 29.475 254.542 29.475 254.542 35.25"/>
    <path id="path4107" class="cls-2" d="M46.117,.3H2.917V21.9c0,11.925,9.675,21.525,21.6,21.525h21.6V.3h0"/>
    <polygon id="polygon4109" class="cls-1" points="17.242 16.95 17.992 15.225 21.517 18.6 20.317 11.25 22.942 12 25.267 7.8 27.592 12.075 29.992 11.325 28.867 18.225 32.392 15.225 33.292 17.025 36.892 16.5 35.992 20.85 37.417 21.825 31.567 27.225 31.867 29.55 26.467 29.1 26.467 30.6 26.542 35.775 25.192 35.775 23.842 35.85 24.067 30.525 24.067 29.175 18.592 29.625 19.042 27.225 13.042 22.05 14.242 20.775 13.342 16.125 17.242 16.95"/>
    <path id="path4111" class="cls-2" d="M259.192,.75h-.75V2.85h-.525V.75h-.75V.3h2.025v.45Zm3.45,2.1h-.525V.825h0l-.75,2.025h-.45l-.675-2.025h0V2.85h-.525V.3h.9l.6,1.65h0l.6-1.65h.9l-.075,2.55Z"/>
  </g>
</svg>