<?xml version="1.0" encoding="UTF-8"?>
<svg id="Layer_1" data-name="Layer 1" xmlns="http://www.w3.org/2000/svg" width="48.003" height="48" viewBox="0 0 48.003 48">
  <defs>
    <style>
      .cls-1 {
        fill: #fff;
      }

      .cls-2 {
        fill: #00ace3;
      }
    </style>
  </defs>
  <path class="cls-2" d="M48.003,24c0,13.254-10.746,24-24,24S0,37.254,0,24,10.746,0,24.003,0s24,10.744,24,24Z"/>
  <path class="cls-1" d="M38.175,12.442c-1.189,.695-2.508,1.2-3.91,1.472-1.121-1.178-2.721-1.914-4.492-1.914-3.398,0-6.154,2.713-6.154,6.059,0,.475,.055,.936,.158,1.38-5.115-.253-9.65-2.665-12.686-6.33-.529,.894-.834,1.935-.834,3.047,0,2.101,1.089,3.956,2.739,5.042-1.008-.032-1.958-.304-2.788-.757v.076c0,2.935,2.122,5.384,4.938,5.942-.517,.138-1.06,.212-1.623,.212-.396,0-.781-.039-1.158-.109,.785,2.406,3.057,4.159,5.75,4.208-2.107,1.625-4.76,2.594-7.645,2.594-.498,0-.986-.029-1.469-.085,2.726,1.719,5.962,2.721,9.437,2.721,11.322,0,17.512-9.231,17.512-17.238,0-.262-.004-.525-.016-.784,1.201-.854,2.246-1.921,3.07-3.137-1.104,.483-2.289,.808-3.535,.954,1.271-.749,2.246-1.936,2.707-3.352Z"/>
  <path class="cls-2" d="M48.003,24c0,13.254-10.746,24-24,24S0,37.254,0,24,10.746,0,24.003,0s24,10.744,24,24Z"/>
  <path class="cls-1" d="M38.175,12.442c-1.189,.695-2.508,1.2-3.91,1.472-1.121-1.178-2.721-1.914-4.492-1.914-3.398,0-6.154,2.713-6.154,6.059,0,.475,.055,.936,.158,1.38-5.115-.253-9.65-2.665-12.686-6.33-.529,.894-.834,1.935-.834,3.047,0,2.101,1.089,3.956,2.739,5.042-1.008-.032-1.958-.304-2.788-.757v.076c0,2.935,2.122,5.384,4.938,5.942-.517,.138-1.06,.212-1.623,.212-.396,0-.781-.039-1.158-.109,.785,2.406,3.057,4.159,5.75,4.208-2.107,1.625-4.76,2.594-7.645,2.594-.498,0-.986-.029-1.469-.085,2.726,1.719,5.962,2.721,9.437,2.721,11.322,0,17.512-9.231,17.512-17.238,0-.262-.004-.525-.016-.784,1.201-.854,2.246-1.921,3.07-3.137-1.104,.483-2.289,.808-3.535,.954,1.271-.749,2.246-1.936,2.707-3.352Z"/>
  <path class="cls-2" d="M48.003,24c0,13.254-10.746,24-24,24S0,37.254,0,24,10.746,0,24.003,0s24,10.744,24,24Z"/>
  <path class="cls-1" d="M38.175,12.442c-1.189,.695-2.508,1.2-3.91,1.472-1.121-1.178-2.721-1.914-4.492-1.914-3.398,0-6.154,2.713-6.154,6.059,0,.475,.055,.936,.158,1.38-5.115-.253-9.65-2.665-12.686-6.33-.529,.894-.834,1.935-.834,3.047,0,2.101,1.089,3.956,2.739,5.042-1.008-.032-1.958-.304-2.788-.757v.076c0,2.935,2.122,5.384,4.938,5.942-.517,.138-1.06,.212-1.623,.212-.396,0-.781-.039-1.158-.109,.785,2.406,3.057,4.159,5.75,4.208-2.107,1.625-4.76,2.594-7.645,2.594-.498,0-.986-.029-1.469-.085,2.726,1.719,5.962,2.721,9.437,2.721,11.322,0,17.512-9.231,17.512-17.238,0-.262-.004-.525-.016-.784,1.201-.854,2.246-1.921,3.07-3.137-1.104,.483-2.289,.808-3.535,.954,1.271-.749,2.246-1.936,2.707-3.352Z"/>
</svg>