<?xml version="1.0" encoding="UTF-8"?>
<svg id="_7_11" data-name="7 11" xmlns="http://www.w3.org/2000/svg" width="118.049" height="114.703" viewBox="0 0 118.049 114.703">
  <defs>
    <style>
      .cls-1 {
        fill: #fff;
      }

      .cls-2 {
        fill: #f58220;
      }

      .cls-3 {
        fill: #ec2030;
      }

      .cls-4 {
        fill: #048162;
      }
    </style>
  </defs>
  <g id="g2862">
    <polygon id="polygon10" class="cls-1" points=".598 .87 117.554 .87 117.554 114.134 .598 114.134 .598 .87"/>
    <polygon id="polygon12" class="cls-4" points="0 0 118.049 0 118.049 114.703 0 114.703 0 0"/>
    <path id="path14" class="cls-1" d="M72.785,107.156v4.592h-28.314v-4.601H23.046c-2.093,0-3.799-2.188-3.799-4.886L10.282,11.592c0-2.7,2.093-4.889,4.677-4.889H101.537c2.566,0,4.66,2.19,4.66,4.889l-8.864,90.669c0,2.698-1.705,4.886-3.799,4.886l-20.75,.009h0Z"/>
    <path id="path16" class="cls-2" d="M26.051,19.978h57.961c-5.707,2.139-23.08,13.902-27.419,21.81H26.102l-.051-21.81h0Z"/>
    <path id="path18" class="cls-3" d="M72.245,82.472c-.827,7.898-.861,17.517-.861,27.62h-25.123c0-10.103,.422-19.721,1.249-27.62h24.734Z"/>
    <polygon id="polygon20" class="cls-4" points="33.379 71.059 33.379 74.12 29.361 74.12 29.361 77.182 33.379 77.182 33.379 80.691 24.194 80.691 24.194 64.363 33.379 64.363 33.379 68 29.361 68 29.361 71.059 33.379 71.059"/>
    <polygon id="polygon22" class="cls-4" points="54.736 71.059 54.736 74.12 50.735 74.12 50.735 77.182 54.736 77.182 54.736 80.691 45.569 80.691 45.569 64.363 54.736 64.363 54.736 68 50.735 68 50.735 71.059 54.736 71.059"/>
    <polygon id="polygon24" class="cls-4" points="78.272 71.059 78.272 74.12 74.253 74.12 74.253 77.182 78.272 77.182 78.272 80.691 69.087 80.691 69.087 64.363 78.272 64.363 78.272 68 74.253 68 74.253 71.059 78.272 71.059"/>
    <polygon id="polygon26" class="cls-4" points="40.267 64.363 40.267 77.182 44.285 77.182 44.285 80.691 35.101 80.691 35.101 64.363 40.267 64.363"/>
    <polygon id="polygon28" class="cls-4" points="62.148 75.398 60.189 64.363 55.682 64.363 58.248 80.691 64.883 80.691 67.99 64.363 64.157 64.363 62.148 75.398"/>
    <polygon id="polygon30" class="cls-4" points="80.45 64.363 85.414 64.363 85.414 80.689 80.45 80.689 80.45 64.363"/>
    <path id="path32" class="cls-4" d="M85.413,69.21c.27-1.788,2.803-1.308,2.803-.287v11.768h4.981v-13.839c0-2.934-4.137-4.115-7.75-1.531l-.034,3.89h0Z"/>
    <path id="path34" class="cls-3" d="M74.575,62.067c.506-6.249,9.066-16.453,17.356-19.132V18.828c-22.809,10.205-37.633,25.638-40.841,43.178l23.485,.061h0Z"/>
  </g>
</svg>