<?xml version="1.0" encoding="UTF-8"?>
<svg id="Layer_1" data-name="Layer 1" xmlns="http://www.w3.org/2000/svg" width="48" height="48" viewBox="0 0 48 48">
  <defs>
    <style>
      .cls-1 {
        fill: #2e80a8;
      }

      .cls-2 {
        fill: #fff;
      }
    </style>
  </defs>
  <path class="cls-1" d="M48,24c0,13.254-10.746,24-23.999,24S0,37.254,0,24,10.746,0,24.001,0s23.999,10.744,23.999,24Z"/>
  <path class="cls-2" d="M33.201,9H14.797c-3.197,0-5.797,2.6-5.797,5.797v18.406c0,3.197,2.6,5.797,5.797,5.797h18.404c3.197,0,5.799-2.6,5.799-5.797V14.797c0-3.197-2.602-5.797-5.799-5.797Zm1.664,3.459l.662-.004v5.084l-5.066,.017-.018-5.084,4.422-.014Zm-15.146,8.463c.961-1.33,2.52-2.201,4.281-2.201s3.32,.871,4.281,2.201c.625,.867,1,1.93,1,3.078,0,2.91-2.371,5.279-5.281,5.279s-5.281-2.369-5.281-5.279c0-1.148,.375-2.211,1-3.078Zm16.359,12.281c0,1.586-1.291,2.875-2.877,2.875H14.797c-1.586,0-2.875-1.289-2.875-2.875v-12.281h4.479c-.387,.951-.604,1.99-.604,3.078,0,4.523,3.68,8.203,8.203,8.203s8.203-3.68,8.203-8.203c0-1.088-.219-2.127-.605-3.078h4.48v12.281Z"/>
  <path class="cls-1" d="M48,24c0,13.254-10.746,24-23.999,24S0,37.254,0,24,10.746,0,24.001,0s23.999,10.744,23.999,24Z"/>
  <path class="cls-2" d="M33.201,9H14.797c-3.197,0-5.797,2.6-5.797,5.797v18.406c0,3.197,2.6,5.797,5.797,5.797h18.404c3.197,0,5.799-2.6,5.799-5.797V14.797c0-3.197-2.602-5.797-5.799-5.797Zm1.664,3.459l.662-.004v5.084l-5.066,.017-.018-5.084,4.422-.014Zm-15.146,8.463c.961-1.33,2.52-2.201,4.281-2.201s3.32,.871,4.281,2.201c.625,.867,1,1.93,1,3.078,0,2.91-2.371,5.279-5.281,5.279s-5.281-2.369-5.281-5.279c0-1.148,.375-2.211,1-3.078Zm16.359,12.281c0,1.586-1.291,2.875-2.877,2.875H14.797c-1.586,0-2.875-1.289-2.875-2.875v-12.281h4.479c-.387,.951-.604,1.99-.604,3.078,0,4.523,3.68,8.203,8.203,8.203s8.203-3.68,8.203-8.203c0-1.088-.219-2.127-.605-3.078h4.48v12.281Z"/>
  <path class="cls-1" d="M48,24c0,13.254-10.746,24-23.999,24S0,37.254,0,24,10.746,0,24.001,0s23.999,10.744,23.999,24Z"/>
  <path class="cls-2" d="M33.201,9H14.797c-3.197,0-5.797,2.6-5.797,5.797v18.406c0,3.197,2.6,5.797,5.797,5.797h18.404c3.197,0,5.799-2.6,5.799-5.797V14.797c0-3.197-2.602-5.797-5.799-5.797Zm1.664,3.459l.662-.004v5.084l-5.066,.017-.018-5.084,4.422-.014Zm-15.146,8.463c.961-1.33,2.52-2.201,4.281-2.201s3.32,.871,4.281,2.201c.625,.867,1,1.93,1,3.078,0,2.91-2.371,5.279-5.281,5.279s-5.281-2.369-5.281-5.279c0-1.148,.375-2.211,1-3.078Zm16.359,12.281c0,1.586-1.291,2.875-2.877,2.875H14.797c-1.586,0-2.875-1.289-2.875-2.875v-12.281h4.479c-.387,.951-.604,1.99-.604,3.078,0,4.523,3.68,8.203,8.203,8.203s8.203-3.68,8.203-8.203c0-1.088-.219-2.127-.605-3.078h4.48v12.281Z"/>
</svg>