<?xml version="1.0" encoding="UTF-8"?>
<svg id="Layer_1" data-name="Layer 1" xmlns="http://www.w3.org/2000/svg" width="48" height="48" viewBox="0 0 48 48">
  <defs>
    <style>
      .cls-1 {
        fill: #fff;
      }

      .cls-2 {
        fill: #f3e205;
      }
    </style>
  </defs>
  <circle class="cls-2" cx="24" cy="24" r="24"/>
  <path id="path12604" class="cls-1" d="M23.867,10.001c-1.816,.012-3.694,.489-5.166,1.641-1.103,.861-1.97,2.002-2.516,3.277,0,.003-.002,.006-.002,.009-.521,1.313-.472,2.711-.402,4.006,0,0,0,.002,0,.002,.043,.91,.144,1.792,.059,2.628-.007,.033-.007,.041-.012,.06-.409,.073-.855,.047-1.297-.037h-.007c-.303-.051-.626-.175-.991-.276-.006-.002-.012-.003-.019-.005-.355-.08-.703,.022-.97,.218-.003,.002-.008,.005-.012,.007-.005,.004-.011,.007-.016,.012-.217,.142-.515,.382-.531,.797,0,.027,.002,.055,.007,.081,.047,.244,.199,.423,.334,.539,.135,.117,.262,.193,.341,.253,.006,.005,.012,.01,.019,.014,.661,.441,1.393,.635,2.03,.881,0,0,.002,0,.002,0,.441,.193,.824,.494,.912,.871,.11,.478-.094,1.027-.36,1.559,0,0,0,.002,0,.002-.717,1.412-1.781,2.64-3.089,3.539-.686,.468-1.46,.818-2.267,1.034-.011,.003-.022,.007-.033,.012-.166,.062-.559,.102-.806,.474-.018,.026-.032,.054-.042,.084-.083,.239,.012,.496,.129,.637,.112,.134,.237,.212,.345,.27,.006,.003,.011,.006,.017,.009,.68,.389,1.422,.557,2.1,.73,.003,0,.006,.001,.009,.002,.489,.11,.939,.169,1.306,.325,.018,.03,.055,.153,.141,.358,.12,.372,.175,.811,.315,1.271,.038,.127,.151,.23,.282,.258,.309,.065,.478-.04,.505-.042,.013,0,.025-.002,.038-.005,1.135-.197,2.268-.371,3.308-.112,0,0,.002,0,.002,0,1.091,.284,2.04,1.035,3.108,1.68,.002,.001,.003,.004,.005,.005v-.002c.709,.445,1.529,.881,2.476,.913v.002s.006,0,.009,0c.715,.04,1.417-.005,2.103-.051h.012c.587-.058,1.156-.251,1.654-.567,.007-.004,.014-.008,.021-.012,1.124-.637,2.122-1.404,3.216-1.885,.002,0,.003-.002,.005-.002,.355-.127,.798-.12,1.292-.153,.005,0,.009,0,.014,0,.906-.028,1.814,.02,2.713,.139,.031,.004,.063,.004,.094,0,.118-.014,.247-.092,.31-.172,.063-.08,.081-.145,.094-.191,.026-.092,.05-.136,.007-.06,.014-.023,.025-.048,.033-.074,.165-.541,.255-1.031,.521-1.336,.12-.116,.326-.174,.559-.17,.017,0,.035,0,.052-.002,.782-.092,1.489-.371,2.159-.609,.008-.003,.016-.006,.023-.009,.249-.107,.62-.23,.874-.583,.001-.002,.003-.003,.005-.005l-.002-.002c.214-.295,.114-.701-.188-.885l.005-.005c-.009-.006-.019-.01-.028-.016-.003-.001-.004-.003-.007-.005v.002c-.363-.231-.726-.263-.956-.346-.005-.002-.009-.003-.014-.005-1.555-.494-2.9-1.556-3.905-2.849-.558-.721-1.029-1.504-1.341-2.34-.001-.003-.001-.006-.002-.009-.122-.363-.128-.759,.052-.999,.002-.002,.005-.005,.007-.007,.281-.399,.796-.656,1.346-.858,.002,0,.005-.001,.007-.002,.608-.209,1.272-.453,1.821-.934,.002-.002,.005-.005,.007-.007,.085-.079,.187-.183,.263-.337s.113-.395,.012-.604v-.002c-.158-.322-.434-.488-.639-.609h-.002c-.343-.198-.743-.211-1.09-.1,0,0-.002,0-.002,0-.002,0-.005,.002-.007,.002-.375,.113-.681,.248-.965,.283-.006,.001-.013,.003-.019,.005-.404,.071-.795,.088-1.099-.023-.003-.045-.004-.133-.016-.242h.002c-.022-.663,.034-1.346,.045-2.054,0-.002,0-.003,0-.005,.031-1.076,.075-2.183-.084-3.298,0-.005-.001-.011-.002-.016-.347-1.88-1.555-3.5-3.087-4.578-1.113-.782-2.435-1.218-3.778-1.341,0,0-.002,0-.002,0-.451-.045-.901-.061-1.349-.056h0Z"/>
</svg>