<?xml version="1.0" encoding="UTF-8"?>
<svg id="Layer_1" data-name="Layer 1" xmlns="http://www.w3.org/2000/svg" width="130.368" height="22.143" viewBox="0 0 130.368 22.143">
  <defs>
    <style>
      .cls-1 {
        stroke: #231f20;
        stroke-miterlimit: 10;
      }
    </style>
  </defs>
  <polygon class="cls-1" points="11.641 1.13 14.907 7.746 22.208 8.807 16.925 13.957 18.172 21.229 11.641 17.796 5.111 21.229 6.358 13.957 1.074 8.807 8.376 7.746 11.641 1.13"/>
  <polygon class="cls-1" points="39.637 1.13 42.903 7.746 50.204 8.807 44.921 13.957 46.168 21.229 39.637 17.796 33.107 21.229 34.354 13.957 29.071 8.807 36.372 7.746 39.637 1.13"/>
  <polygon class="cls-1" points="67.634 1.13 70.899 7.746 78.2 8.807 72.917 13.957 74.164 21.229 67.634 17.796 61.103 21.229 62.35 13.957 57.067 8.807 64.368 7.746 67.634 1.13"/>
  <polygon class="cls-1" points="93.18 1.13 96.445 7.746 103.747 8.807 98.463 13.957 99.711 21.229 93.18 17.796 86.649 21.229 87.897 13.957 82.613 8.807 89.915 7.746 93.18 1.13"/>
  <polygon class="cls-1" points="118.726 1.13 121.992 7.746 129.293 8.807 124.01 13.957 125.257 21.229 118.726 17.796 112.196 21.229 113.443 13.957 108.16 8.807 115.461 7.746 118.726 1.13"/>
</svg>